<mxfile host="app.diagrams.net" modified="2021-09-05T02:41:56.119Z" agent="5.0 (Windows NT 10.0; Win64; x64) AppleWebKit/537.36 (KHTML, like Gecko) Chrome/93.0.4577.63 Safari/537.36" etag="TbonpIvd4Mn2gx0oOzPw" version="15.0.6" type="github">
  <diagram id="C5RBs43oDa-KdzZeNtuy" name="Page-1">
    <mxGraphModel dx="782" dy="482" grid="1" gridSize="10" guides="1" tooltips="1" connect="1" arrows="1" fold="1" page="1" pageScale="1" pageWidth="827" pageHeight="1169" background="#DAD2D8" math="0" shadow="0">
      <root>
        <mxCell id="WIyWlLk6GJQsqaUBKTNV-0" />
        <mxCell id="WIyWlLk6GJQsqaUBKTNV-1" parent="WIyWlLk6GJQsqaUBKTNV-0" />
        <mxCell id="gfpeHx-LDhQR_kgMFzr--5" value="" style="edgeStyle=orthogonalEdgeStyle;curved=0;rounded=1;sketch=0;orthogonalLoop=1;jettySize=auto;html=1;fontSize=15;fontColor=#143642;strokeColor=#A8201A;fillColor=#FAE5C7;" edge="1" parent="WIyWlLk6GJQsqaUBKTNV-1" source="gfpeHx-LDhQR_kgMFzr--3">
          <mxGeometry relative="1" as="geometry">
            <mxPoint x="170" y="285" as="targetPoint" />
          </mxGeometry>
        </mxCell>
        <mxCell id="gfpeHx-LDhQR_kgMFzr--18" value="" style="edgeStyle=orthogonalEdgeStyle;curved=0;rounded=1;sketch=0;orthogonalLoop=1;jettySize=auto;html=1;fontSize=15;fontColor=#143642;strokeColor=#A8201A;fillColor=#FAE5C7;" edge="1" parent="WIyWlLk6GJQsqaUBKTNV-1" source="gfpeHx-LDhQR_kgMFzr--3" target="gfpeHx-LDhQR_kgMFzr--17">
          <mxGeometry relative="1" as="geometry" />
        </mxCell>
        <mxCell id="gfpeHx-LDhQR_kgMFzr--3" value="初始化端口&amp;amp;中断参数" style="rounded=1;whiteSpace=wrap;html=1;fillColor=#FAE5C7;strokeColor=#0F8B8D;fontColor=#143642;fontSize=15;" vertex="1" parent="WIyWlLk6GJQsqaUBKTNV-1">
          <mxGeometry x="20" y="260" width="110" height="50" as="geometry" />
        </mxCell>
        <mxCell id="gfpeHx-LDhQR_kgMFzr--9" value="" style="edgeStyle=orthogonalEdgeStyle;curved=0;rounded=1;sketch=0;orthogonalLoop=1;jettySize=auto;html=1;fontSize=15;fontColor=#143642;strokeColor=#A8201A;fillColor=#FAE5C7;" edge="1" parent="WIyWlLk6GJQsqaUBKTNV-1" source="gfpeHx-LDhQR_kgMFzr--6">
          <mxGeometry relative="1" as="geometry">
            <mxPoint x="300" y="290" as="targetPoint" />
            <Array as="points">
              <mxPoint x="370" y="410" />
              <mxPoint x="300" y="410" />
            </Array>
          </mxGeometry>
        </mxCell>
        <mxCell id="gfpeHx-LDhQR_kgMFzr--12" value="" style="edgeStyle=orthogonalEdgeStyle;curved=0;rounded=1;sketch=0;orthogonalLoop=1;jettySize=auto;html=1;fontSize=15;fontColor=#143642;strokeColor=#A8201A;fillColor=#FAE5C7;" edge="1" parent="WIyWlLk6GJQsqaUBKTNV-1" source="gfpeHx-LDhQR_kgMFzr--6">
          <mxGeometry relative="1" as="geometry">
            <mxPoint x="480" y="285" as="targetPoint" />
          </mxGeometry>
        </mxCell>
        <mxCell id="gfpeHx-LDhQR_kgMFzr--6" value="是否发生中断" style="rhombus;whiteSpace=wrap;html=1;rounded=0;sketch=0;fontSize=15;fontColor=#143642;strokeColor=#0F8B8D;fillColor=#FAE5C7;" vertex="1" parent="WIyWlLk6GJQsqaUBKTNV-1">
          <mxGeometry x="320" y="227.5" width="100" height="115" as="geometry" />
        </mxCell>
        <mxCell id="gfpeHx-LDhQR_kgMFzr--10" value="NO&amp;nbsp;" style="text;html=1;strokeColor=none;fillColor=none;align=center;verticalAlign=middle;whiteSpace=wrap;rounded=0;sketch=0;fontSize=15;fontColor=#143642;" vertex="1" parent="WIyWlLk6GJQsqaUBKTNV-1">
          <mxGeometry x="330" y="360" width="40" height="20" as="geometry" />
        </mxCell>
        <mxCell id="gfpeHx-LDhQR_kgMFzr--13" value="YES" style="text;html=1;strokeColor=none;fillColor=none;align=center;verticalAlign=middle;whiteSpace=wrap;rounded=0;sketch=0;fontSize=15;fontColor=#143642;" vertex="1" parent="WIyWlLk6GJQsqaUBKTNV-1">
          <mxGeometry x="430" y="260" width="40" height="20" as="geometry" />
        </mxCell>
        <mxCell id="gfpeHx-LDhQR_kgMFzr--23" value="" style="edgeStyle=orthogonalEdgeStyle;curved=0;rounded=1;sketch=0;orthogonalLoop=1;jettySize=auto;html=1;fontSize=15;fontColor=#143642;strokeColor=#A8201A;fillColor=#FAE5C7;" edge="1" parent="WIyWlLk6GJQsqaUBKTNV-1" source="gfpeHx-LDhQR_kgMFzr--16" target="gfpeHx-LDhQR_kgMFzr--22">
          <mxGeometry relative="1" as="geometry" />
        </mxCell>
        <mxCell id="gfpeHx-LDhQR_kgMFzr--16" value="进入中断" style="rounded=1;whiteSpace=wrap;html=1;sketch=0;fontSize=15;fontColor=#143642;strokeColor=#0F8B8D;fillColor=#FAE5C7;" vertex="1" parent="WIyWlLk6GJQsqaUBKTNV-1">
          <mxGeometry x="470" y="262.5" width="90" height="47.5" as="geometry" />
        </mxCell>
        <mxCell id="gfpeHx-LDhQR_kgMFzr--21" value="" style="edgeStyle=orthogonalEdgeStyle;curved=0;rounded=1;sketch=0;orthogonalLoop=1;jettySize=auto;html=1;fontSize=15;fontColor=#143642;strokeColor=#A8201A;fillColor=#FAE5C7;" edge="1" parent="WIyWlLk6GJQsqaUBKTNV-1" source="gfpeHx-LDhQR_kgMFzr--17" target="gfpeHx-LDhQR_kgMFzr--6">
          <mxGeometry relative="1" as="geometry" />
        </mxCell>
        <mxCell id="gfpeHx-LDhQR_kgMFzr--17" value="初始化Timer0配置" style="whiteSpace=wrap;html=1;rounded=1;fontSize=15;fontColor=#143642;strokeColor=#0F8B8D;fillColor=#FAE5C7;" vertex="1" parent="WIyWlLk6GJQsqaUBKTNV-1">
          <mxGeometry x="170" y="258.75" width="110" height="52.5" as="geometry" />
        </mxCell>
        <mxCell id="gfpeHx-LDhQR_kgMFzr--25" value="" style="edgeStyle=orthogonalEdgeStyle;curved=0;rounded=1;sketch=0;orthogonalLoop=1;jettySize=auto;html=1;fontSize=15;fontColor=#143642;strokeColor=#A8201A;fillColor=#FAE5C7;" edge="1" parent="WIyWlLk6GJQsqaUBKTNV-1" source="gfpeHx-LDhQR_kgMFzr--22" target="gfpeHx-LDhQR_kgMFzr--24">
          <mxGeometry relative="1" as="geometry" />
        </mxCell>
        <mxCell id="gfpeHx-LDhQR_kgMFzr--22" value="PORTA取反/&lt;br&gt;恢复Timer0参数" style="whiteSpace=wrap;html=1;rounded=1;fontSize=15;fontColor=#143642;strokeColor=#0F8B8D;fillColor=#FAE5C7;sketch=0;" vertex="1" parent="WIyWlLk6GJQsqaUBKTNV-1">
          <mxGeometry x="610" y="260" width="95" height="53.75" as="geometry" />
        </mxCell>
        <mxCell id="gfpeHx-LDhQR_kgMFzr--27" value="" style="edgeStyle=orthogonalEdgeStyle;curved=0;rounded=1;sketch=0;orthogonalLoop=1;jettySize=auto;html=1;fontSize=15;fontColor=#143642;strokeColor=#A8201A;fillColor=#FAE5C7;" edge="1" parent="WIyWlLk6GJQsqaUBKTNV-1" source="gfpeHx-LDhQR_kgMFzr--24">
          <mxGeometry relative="1" as="geometry">
            <mxPoint x="300" y="280" as="targetPoint" />
            <Array as="points">
              <mxPoint x="300" y="190" />
            </Array>
          </mxGeometry>
        </mxCell>
        <mxCell id="gfpeHx-LDhQR_kgMFzr--24" value="中断返回" style="whiteSpace=wrap;html=1;rounded=1;fontSize=15;fontColor=#143642;strokeColor=#0F8B8D;fillColor=#FAE5C7;sketch=0;" vertex="1" parent="WIyWlLk6GJQsqaUBKTNV-1">
          <mxGeometry x="597.5" y="180" width="120" height="47.51" as="geometry" />
        </mxCell>
      </root>
    </mxGraphModel>
  </diagram>
</mxfile>
